<svg width="33" height="32" viewBox="0 0 33 32" fill="none" xmlns="http://www.w3.org/2000/svg">
<g clip-path="url(#clip0_576_16)">
<path d="M1.29102 16C1.29102 19.9782 2.87137 23.7936 5.68441 26.6066C8.49746 29.4196 12.3128 31 16.291 31C20.2693 31 24.0846 29.4196 26.8976 26.6066C29.7107 23.7936 31.291 19.9782 31.291 16C31.291 12.0218 29.7107 8.20644 26.8976 5.3934C24.0846 2.58035 20.2693 1 16.291 1C12.3128 1 8.49746 2.58035 5.68441 5.3934C2.87137 8.20644 1.29102 12.0218 1.29102 16V16Z" stroke="#2D2D2D" stroke-width="2" stroke-linecap="round" stroke-linejoin="round"/>
<path d="M5.32324 26.2333C7.15124 20.6906 12.7432 8.6453 27.3579 5.87463" stroke="#2D2D2D" stroke-width="2" stroke-linecap="round" stroke-linejoin="round"/>
<path d="M5.09082 6.02661C11.0695 8.20394 22.2535 14.1333 24.5988 28.5066" stroke="#2D2D2D" stroke-width="2" stroke-linecap="round" stroke-linejoin="round"/>
<path d="M14.3229 1.12805C14.3997 2.75961 14.1152 4.38801 13.4897 5.89684C12.8641 7.40568 11.913 8.75769 10.7042 9.85625C9.49547 10.9548 8.05897 11.7728 6.49739 12.2517C4.93581 12.7306 3.28771 12.8587 1.6709 12.6267" stroke="#2D2D2D" stroke-width="2" stroke-linecap="round" stroke-linejoin="round"/>
<path d="M16.0124 30.9974C9.78577 21.0107 21.4511 9.56004 31.2884 15.7214" stroke="#2D2D2D" stroke-width="2" stroke-linecap="round" stroke-linejoin="round"/>
</g>
<defs>
<clipPath id="clip0_576_16">
<rect width="32" height="32" fill="white" transform="translate(0.291016)"/>
</clipPath>
</defs>
</svg>
