<svg width="33" height="32" viewBox="0 0 33 32" fill="none" xmlns="http://www.w3.org/2000/svg">
<g clip-path="url(#clip0_576_274)">
<path d="M1.04102 20.3827C1.04102 21.7088 1.5678 22.9805 2.50548 23.9182C3.44316 24.8559 4.71493 25.3827 6.04102 25.3827C7.3671 25.3827 8.63887 24.8559 9.57655 23.9182C10.5142 22.9805 11.041 21.7088 11.041 20.3827C11.041 19.0566 10.5142 17.7848 9.57655 16.8472C8.63887 15.9095 7.3671 15.3827 6.04102 15.3827C4.71493 15.3827 3.44316 15.9095 2.50548 16.8472C1.5678 17.7848 1.04102 19.0566 1.04102 20.3827V20.3827Z" stroke="#BDBDBD" stroke-width="2" stroke-linecap="round" stroke-linejoin="round"/>
<path d="M21.041 20.3827C21.041 21.7088 21.5678 22.9805 22.5055 23.9182C23.4432 24.8559 24.7149 25.3827 26.041 25.3827C27.3671 25.3827 28.6389 24.8559 29.5766 23.9182C30.5142 22.9805 31.041 21.7088 31.041 20.3827C31.041 19.0566 30.5142 17.7848 29.5766 16.8472C28.6389 15.9095 27.3671 15.3827 26.041 15.3827C24.7149 15.3827 23.4432 15.9095 22.5055 16.8472C21.5678 17.7848 21.041 19.0566 21.041 20.3827V20.3827Z" stroke="#BDBDBD" stroke-width="2" stroke-linecap="round" stroke-linejoin="round"/>
<path d="M27.0413 11.3827C27.5717 11.3827 28.0804 11.172 28.4555 10.7969C28.8306 10.4218 29.0413 9.91312 29.0413 9.38269C29.0413 8.85226 28.8306 8.34355 28.4555 7.96848C28.0804 7.5934 27.5717 7.38269 27.0413 7.38269H22.4973C22.3352 7.38303 22.1755 7.42273 22.0321 7.49839C21.8887 7.57405 21.7658 7.6834 21.674 7.81705C21.5822 7.95069 21.5242 8.10463 21.5051 8.26564C21.4859 8.42664 21.5061 8.58989 21.564 8.74136L26.0413 20.3827" stroke="#BDBDBD" stroke-width="2" stroke-linecap="round" stroke-linejoin="round"/>
<path d="M14.0411 7.38263L7.17578 5.66663" stroke="#BDBDBD" stroke-width="2" stroke-linecap="round" stroke-linejoin="round"/>
<path d="M14.089 16.5787L10.041 6.38269" stroke="#BDBDBD" stroke-width="2" stroke-linecap="round" stroke-linejoin="round"/>
<path d="M6.04102 20.3827L22.9637 12.3827" stroke="#BDBDBD" stroke-width="2" stroke-linecap="round" stroke-linejoin="round"/>
</g>
<defs>
<clipPath id="clip0_576_274">
<rect width="32" height="32" fill="white" transform="translate(0.0410156)"/>
</clipPath>
</defs>
</svg>
