<svg width="33" height="32" viewBox="0 0 33 32" fill="none" xmlns="http://www.w3.org/2000/svg">
<g clip-path="url(#clip0_576_424)">
<path d="M13.041 1C11.4497 1 9.92359 1.63214 8.79838 2.75736C7.67316 3.88258 7.04102 5.4087 7.04102 7V12C7.04102 11.2044 6.72494 10.4413 6.16234 9.87868C5.59973 9.31607 4.83667 9 4.04102 9C3.24537 9 2.4823 9.31607 1.9197 9.87868C1.35709 10.4413 1.04102 11.2044 1.04102 12V17C1.04102 18.5913 1.67316 20.1174 2.79837 21.2426C3.92359 22.3679 5.44972 23 7.04102 23V29C7.04102 29.5304 7.25173 30.0391 7.6268 30.4142C8.00187 30.7893 8.51058 31 9.04102 31H25.041C25.5714 31 26.0802 30.7893 26.4552 30.4142C26.8303 30.0391 27.041 29.5304 27.041 29V23C27.041 20 31.041 19 31.041 15V9C31.041 6.87827 30.1982 4.84344 28.6979 3.34315C27.1976 1.84285 25.1627 1 23.041 1H13.041Z" stroke="#BDBDBD" stroke-width="2" stroke-linecap="round" stroke-linejoin="round"/>
<path d="M23.041 13C23.041 14.0609 22.6196 15.0783 21.8694 15.8284C21.1193 16.5786 20.1019 17 19.041 17H10.041C9.24537 17 8.4823 16.6839 7.9197 16.1213C7.35709 15.5587 7.04102 14.7956 7.04102 14V12" stroke="#BDBDBD" stroke-width="2" stroke-linecap="round" stroke-linejoin="round"/>
<path d="M15.041 25C15.041 25.5304 14.8303 26.0391 14.4552 26.4142C14.0802 26.7893 13.5714 27 13.041 27H7.04102V23H13.041C13.5714 23 14.0802 23.2107 14.4552 23.5858C14.8303 23.9609 15.041 24.4696 15.041 25Z" stroke="#BDBDBD" stroke-width="2" stroke-linecap="round" stroke-linejoin="round"/>
</g>
<defs>
<clipPath id="clip0_576_424">
<rect width="32" height="32" fill="white" transform="translate(0.0410156)"/>
</clipPath>
</defs>
</svg>
