<svg width="33" height="32" viewBox="0 0 33 32" fill="none" xmlns="http://www.w3.org/2000/svg">
<g clip-path="url(#clip0_576_122)">
<path d="M20.541 21.3334C20.541 22.129 20.8571 22.8921 21.4197 23.4547C21.9823 24.0173 22.7454 24.3334 23.541 24.3334C24.3367 24.3334 25.0997 24.0173 25.6623 23.4547C26.2249 22.8921 26.541 22.129 26.541 21.3334C26.541 20.5377 26.2249 19.7747 25.6623 19.2121C25.0997 18.6494 24.3367 18.3334 23.541 18.3334C22.7454 18.3334 21.9823 18.6494 21.4197 19.2121C20.8571 19.7747 20.541 20.5377 20.541 21.3334V21.3334Z" stroke="#BDBDBD" stroke-width="2" stroke-linecap="round" stroke-linejoin="round"/>
<path d="M4.54102 21.3334C4.54102 21.7273 4.61861 22.1174 4.76938 22.4814C4.92014 22.8454 5.14112 23.1761 5.4197 23.4547C5.69827 23.7333 6.02899 23.9542 6.39297 24.105C6.75694 24.2558 7.14705 24.3334 7.54102 24.3334C7.93498 24.3334 8.32509 24.2558 8.68907 24.105C9.05304 23.9542 9.38376 23.7333 9.66234 23.4547C9.94091 23.1761 10.1619 22.8454 10.3127 22.4814C10.4634 22.1174 10.541 21.7273 10.541 21.3334C10.541 20.9394 10.4634 20.5493 10.3127 20.1853C10.1619 19.8213 9.94091 19.4906 9.66234 19.2121C9.38376 18.9335 9.05304 18.7125 8.68907 18.5617C8.32509 18.411 7.93498 18.3334 7.54102 18.3334C7.14705 18.3334 6.75694 18.411 6.39297 18.5617C6.02899 18.7125 5.69827 18.9335 5.4197 19.2121C5.14112 19.4906 4.92014 19.8213 4.76938 20.1853C4.61861 20.5493 4.54102 20.9394 4.54102 21.3334V21.3334Z" stroke="#BDBDBD" stroke-width="2" stroke-linecap="round" stroke-linejoin="round"/>
<path d="M20.7115 22.3334H15.5408H10.3701" stroke="#BDBDBD" stroke-width="2" stroke-linecap="round" stroke-linejoin="round"/>
<path d="M4.71168 22.3334H1.54102V14.3334H7.54102C8.54102 11.3334 11.6757 9.33337 15.541 9.33337V16.3334H27.541C28.6019 16.3334 29.6193 16.7548 30.3694 17.5049C31.1196 18.2551 31.541 19.2725 31.541 20.3334V22.3334H26.3703" stroke="#BDBDBD" stroke-width="2" stroke-linecap="round" stroke-linejoin="round"/>
<path d="M6.54102 9.33337L1.54102 7.33337" stroke="#BDBDBD" stroke-width="2" stroke-linecap="round" stroke-linejoin="round"/>
<path d="M3.54102 14.3333V8.1333" stroke="#BDBDBD" stroke-width="2" stroke-linecap="round" stroke-linejoin="round"/>
<path d="M19.541 9.33337C19.541 9.72734 19.6186 10.1174 19.7694 10.4814C19.9201 10.8454 20.1411 11.1761 20.4197 11.4547C20.6983 11.7333 21.029 11.9542 21.393 12.105C21.7569 12.2558 22.1471 12.3334 22.541 12.3334C22.935 12.3334 23.3251 12.2558 23.6891 12.105C24.053 11.9542 24.3838 11.7333 24.6623 11.4547C24.9409 11.1761 25.1619 10.8454 25.3127 10.4814C25.4634 10.1174 25.541 9.72734 25.541 9.33337C25.541 8.93941 25.4634 8.5493 25.3127 8.18532C25.1619 7.82135 24.9409 7.49063 24.6623 7.21205C24.3838 6.93348 24.053 6.7125 23.6891 6.56174C23.3251 6.41097 22.935 6.33337 22.541 6.33337C22.1471 6.33337 21.7569 6.41097 21.393 6.56174C21.029 6.7125 20.6983 6.93348 20.4197 7.21205C20.1411 7.49063 19.9201 7.82135 19.7694 8.18532C19.6186 8.5493 19.541 8.93941 19.541 9.33337V9.33337Z" stroke="#BDBDBD" stroke-width="2" stroke-linecap="round" stroke-linejoin="round"/>
</g>
<defs>
<clipPath id="clip0_576_122">
<rect width="32" height="32" fill="white" transform="translate(0.541016)"/>
</clipPath>
</defs>
</svg>
