<svg width="38" height="32" viewBox="0 0 38 32" fill="none" xmlns="http://www.w3.org/2000/svg">
<path d="M16.6245 0.999878C13.6578 0.999878 10.7577 1.87961 8.29097 3.52783C5.82423 5.17605 3.90164 7.51873 2.76633 10.2596C1.63101 13.0005 1.33396 16.0165 1.91274 18.9262C2.49152 21.8359 3.92013 24.5087 6.01792 26.6065C8.1157 28.7043 10.7884 30.1329 13.6982 30.7117C16.6079 31.2904 19.6239 30.9934 22.3648 29.8581C25.1057 28.7228 27.4483 26.8002 29.0966 24.3334C30.7448 21.8667 31.6245 18.9666 31.6245 15.9999C31.6245 14.0301 31.2365 12.0795 30.4827 10.2596C29.7289 8.43974 28.624 6.78616 27.2311 5.39328C25.8382 4.0004 24.1847 2.89551 22.3648 2.14169C20.5449 1.38786 18.5943 0.999878 16.6245 0.999878V0.999878Z" stroke="#BDBDBD" stroke-width="2" stroke-linecap="round" stroke-linejoin="round"/>
<path d="M12.4837 22.3386L9.93701 14.4719L16.6237 9.6106L23.3103 14.4719L20.7637 22.3386H12.4837Z" stroke="#BDBDBD" stroke-width="2" stroke-linecap="round" stroke-linejoin="round"/>
<path d="M22.359 2.13464L16.6243 5.99998L10.8896 2.13464" stroke="#BDBDBD" stroke-width="2" stroke-linecap="round" stroke-linejoin="round"/>
<path d="M20.0894 30.5973L22.9414 24.776L29.4534 23.776" stroke="#BDBDBD" stroke-width="2" stroke-linecap="round" stroke-linejoin="round"/>
<path d="M31.5752 17.2119L27.0059 12.6612L27.9859 6.20923" stroke="#BDBDBD" stroke-width="2" stroke-linecap="round" stroke-linejoin="round"/>
<path d="M16.6245 5.99988V9.61054" stroke="#BDBDBD" stroke-width="2" stroke-linecap="round" stroke-linejoin="round"/>
<path d="M23.312 14.472L27.008 12.6614" stroke="#BDBDBD" stroke-width="2" stroke-linecap="round" stroke-linejoin="round"/>
<path d="M1.67285 17.2119L6.24218 12.6612L5.26218 6.20923" stroke="#BDBDBD" stroke-width="2" stroke-linecap="round" stroke-linejoin="round"/>
<path d="M9.93916 14.472L6.24316 12.6614" stroke="#BDBDBD" stroke-width="2" stroke-linecap="round" stroke-linejoin="round"/>
<path d="M20.7651 22.3385L22.9425 24.7758" stroke="#BDBDBD" stroke-width="2" stroke-linecap="round" stroke-linejoin="round"/>
<path d="M13.1589 30.5973L10.3069 24.776L3.79492 23.776" stroke="#BDBDBD" stroke-width="2" stroke-linecap="round" stroke-linejoin="round"/>
<path d="M12.484 22.3385L10.3066 24.7758" stroke="#BDBDBD" stroke-width="2" stroke-linecap="round" stroke-linejoin="round"/>
<rect x="16.6245" y="10.6666" width="21.3333" height="21.3333" rx="1.77778" fill="#FACC01"/>
<g clip-path="url(#clip0_410_2855)">
<path d="M31.6404 21.7476H22.9072C22.2473 21.7494 21.5984 21.9162 21.0194 22.2327C20.4404 22.5492 19.9497 23.0053 19.5918 23.5597C19.234 24.1142 19.0203 24.7492 18.9704 25.4071C18.9204 26.0651 19.0356 26.7251 19.3056 27.3272C19.5756 27.9293 19.9918 28.4544 20.5163 28.8547C21.0409 29.255 21.6572 29.5179 22.3092 29.6194C22.9612 29.721 23.6282 29.658 24.2496 29.4362C24.8711 29.2143 25.4273 28.8407 25.8675 28.3493H28.7392C29.1798 28.8369 29.735 29.2069 30.3547 29.4259C30.9744 29.6449 31.6388 29.7059 32.288 29.6033C32.9372 29.5008 33.5505 29.238 34.0725 28.8387C34.5946 28.4395 35.0087 27.9164 35.2777 27.3167C35.5466 26.717 35.6617 26.0597 35.6127 25.4044C35.5635 24.749 35.3518 24.1162 34.9965 23.5633C34.6413 23.0104 34.1538 22.5547 33.5781 22.2377C33.0024 21.9207 32.3567 21.7522 31.6995 21.7476H31.6404Z" stroke="#2D2D2D" stroke-width="1.11111" stroke-linecap="round" stroke-linejoin="round"/>
<path d="M22.9072 24.3823V27.0245" stroke="#2D2D2D" stroke-width="1.11111" stroke-linecap="round" stroke-linejoin="round"/>
<path d="M21.5894 25.7068H24.2315" stroke="#2D2D2D" stroke-width="1.11111" stroke-linecap="round" stroke-linejoin="round"/>
<path d="M24.9229 19.1718C25.2316 18.8621 25.5984 18.6163 26.0022 18.4487C26.4061 18.281 26.8391 18.1947 27.2764 18.1947C27.7137 18.1947 28.1467 18.281 28.5505 18.4487C28.9544 18.6163 29.3212 18.8621 29.6299 19.1718" stroke="#2D2D2D" stroke-width="1.11111" stroke-linecap="round" stroke-linejoin="round"/>
<path d="M22.9604 17.3953C23.5263 16.8274 24.1988 16.3768 24.9392 16.0693C25.6796 15.7618 26.4735 15.6035 27.2752 15.6035C28.077 15.6035 28.8708 15.7618 29.6113 16.0693C30.3517 16.3768 31.0242 16.8274 31.59 17.3953" stroke="#2D2D2D" stroke-width="1.11111" stroke-linecap="round" stroke-linejoin="round"/>
<path d="M20.9917 15.6119C21.8168 14.7839 22.7972 14.127 23.8767 13.6787C24.9563 13.2305 26.1137 12.9998 27.2826 12.9998C28.4514 12.9998 29.6088 13.2305 30.6884 13.6787C31.7679 14.127 32.7483 14.7839 33.5734 15.6119" stroke="#2D2D2D" stroke-width="1.11111" stroke-linecap="round" stroke-linejoin="round"/>
<path d="M30.5195 26.8692C30.3661 26.8692 30.2417 26.7448 30.2417 26.5914C30.2417 26.438 30.3661 26.3136 30.5195 26.3136" stroke="#2D2D2D" stroke-width="1.11111"/>
<path d="M30.519 26.8692C30.6725 26.8692 30.7968 26.7448 30.7968 26.5914C30.7968 26.438 30.6725 26.3136 30.519 26.3136" stroke="#2D2D2D" stroke-width="1.11111"/>
<path d="M32.5454 24.8932C32.3919 24.8932 32.2676 24.7688 32.2676 24.6154C32.2676 24.462 32.3919 24.3376 32.5454 24.3376" stroke="#2D2D2D" stroke-width="1.11111"/>
<path d="M32.5449 24.8931C32.6984 24.8931 32.8227 24.7687 32.8227 24.6153C32.8227 24.4619 32.6984 24.3375 32.5449 24.3375" stroke="#2D2D2D" stroke-width="1.11111"/>
</g>
<defs>
<clipPath id="clip0_410_2855">
<rect width="17.7778" height="17.7778" fill="white" transform="translate(18.4019 12.4442)"/>
</clipPath>
</defs>
</svg>
