<svg width="33" height="32" viewBox="0 0 33 32" fill="none" xmlns="http://www.w3.org/2000/svg">
<path d="M3.54102 31C3.54008 28.9808 4.01038 26.9893 4.9145 25.1838C5.81862 23.3784 7.13162 21.8088 8.74902 20.6" stroke="#BDBDBD" stroke-width="2" stroke-linecap="round" stroke-linejoin="round"/>
<path d="M16.541 15C20.407 15 23.541 11.866 23.541 8C23.541 4.13401 20.407 1 16.541 1C12.675 1 9.54102 4.13401 9.54102 8C9.54102 11.866 12.675 15 16.541 15Z" stroke="#BDBDBD" stroke-width="2" stroke-linecap="round" stroke-linejoin="round"/>
<path d="M10.5088 4.44666C11.5928 5.57071 12.8923 6.46471 14.3296 7.07523C15.7669 7.68575 17.3125 8.00027 18.8741 7.99999C20.4558 8.00044 22.021 7.67832 23.4741 7.05332" stroke="#BDBDBD" stroke-width="2" stroke-linecap="round" stroke-linejoin="round"/>
<path d="M8.74902 20.5934L11.7677 30.8574" stroke="#BDBDBD" stroke-width="2" stroke-linecap="round" stroke-linejoin="round"/>
<path d="M24.3329 20.5934L21.3169 30.8494" stroke="#BDBDBD" stroke-width="2" stroke-linecap="round" stroke-linejoin="round"/>
<path d="M24.333 20.5934C25.9513 21.8029 27.2649 23.3735 28.169 25.1802C29.0731 26.9868 29.543 28.9798 29.541 31.0001" stroke="#BDBDBD" stroke-width="2" stroke-linecap="round" stroke-linejoin="round"/>
<path d="M13.4878 18.4493L19.5945 21.5573" stroke="#BDBDBD" stroke-width="2" stroke-linecap="round" stroke-linejoin="round"/>
<path d="M19.5945 18.4493L13.4878 21.5573" stroke="#BDBDBD" stroke-width="2" stroke-linecap="round" stroke-linejoin="round"/>
<path d="M16.5425 26.3867C16.2663 26.3867 16.0425 26.1629 16.0425 25.8867C16.0425 25.6106 16.2663 25.3867 16.5425 25.3867" stroke="#BDBDBD" stroke-width="2"/>
<path d="M16.5425 26.3867C16.8186 26.3867 17.0425 26.1629 17.0425 25.8867C17.0425 25.6106 16.8186 25.3867 16.5425 25.3867" stroke="#BDBDBD" stroke-width="2"/>
<path d="M16.5425 30.72C16.2663 30.72 16.0425 30.4961 16.0425 30.22C16.0425 29.9438 16.2663 29.72 16.5425 29.72" stroke="#BDBDBD" stroke-width="2"/>
<path d="M16.5425 30.72C16.8186 30.72 17.0425 30.4961 17.0425 30.22C17.0425 29.9438 16.8186 29.72 16.5425 29.72" stroke="#BDBDBD" stroke-width="2"/>
</svg>
