<svg width="35" height="33" viewBox="0 0 35 33" fill="none" xmlns="http://www.w3.org/2000/svg">
<path d="M13.1058 16.1148C15.1723 16.1148 16.8474 14.4396 16.8474 12.3732C16.8474 10.3068 15.1723 8.63159 13.1058 8.63159C11.0394 8.63159 9.36426 10.3068 9.36426 12.3732C9.36426 14.4396 11.0394 16.1148 13.1058 16.1148Z" stroke="#BDBDBD" stroke-width="2.13398" stroke-linecap="round" stroke-linejoin="round"/>
<path d="M29.1107 9.69852C31.4679 9.69852 33.3787 7.78769 33.3787 5.43056C33.3787 3.07343 31.4679 1.1626 29.1107 1.1626C26.7536 1.1626 24.8428 3.07343 24.8428 5.43056C24.8428 7.78769 26.7536 9.69852 29.1107 9.69852Z" stroke="#BDBDBD" stroke-width="2.13398" stroke-linecap="round" stroke-linejoin="round"/>
<path d="M8.52573 24.8212L8.83871 23.5692H8.26965C7.87362 23.5698 7.48555 23.6805 7.14887 23.8891C6.81219 24.0976 6.54018 24.3957 6.36329 24.75L5.41011 26.6564C5.23453 27.0118 4.96283 27.3108 4.62586 27.5195C4.28888 27.7282 3.90013 27.8383 3.50375 27.8372C3.17229 27.8396 2.84521 27.7614 2.55058 27.6096C2.04917 27.3562 1.66788 26.9154 1.48943 26.3827C1.31098 25.8501 1.34978 25.2685 1.5974 24.7643L2.55058 22.8579C3.07517 21.7961 3.88584 20.9019 4.89125 20.276C5.89667 19.6502 7.05689 19.3175 8.24119 19.3155H14.2163L15.3829 17.8928L18.4843 14.009L22.1121 9.47073C22.4667 9.02928 22.9823 8.7468 23.5452 8.68543C24.1082 8.62407 24.6724 8.78885 25.1139 9.14352C25.5553 9.49819 25.8378 10.0137 25.8992 10.5767C25.9605 11.1396 25.7958 11.7039 25.4411 12.1453L17.8726 21.5917L17.0617 24.8638" stroke="#BDBDBD" stroke-width="2.13398" stroke-linecap="round" stroke-linejoin="round"/>
</svg>
