<svg width="33" height="32" viewBox="0 0 33 32" fill="none" xmlns="http://www.w3.org/2000/svg">
<path d="M19.3745 4.5C19.3745 5.42826 19.7433 6.3185 20.3996 6.97487C21.056 7.63125 21.9463 8 22.8745 8C23.8028 8 24.693 7.63125 25.3494 6.97487C26.0058 6.3185 26.3745 5.42826 26.3745 4.5C26.3745 3.57174 26.0058 2.6815 25.3494 2.02513C24.693 1.36875 23.8028 1 22.8745 1C21.9463 1 21.056 1.36875 20.3996 2.02513C19.7433 2.6815 19.3745 3.57174 19.3745 4.5V4.5Z" stroke="#BDBDBD" stroke-width="2" stroke-linecap="round" stroke-linejoin="round"/>
<path d="M4.87343 27C4.54033 26.9998 4.21254 26.9164 3.91984 26.7574C3.62713 26.5984 3.37878 26.3688 3.19732 26.0895C3.01586 25.8101 2.90704 25.4899 2.88075 25.1578C2.85446 24.8258 2.91153 24.4924 3.04677 24.188L6.67477 16.012C7.03912 15.1985 7.57863 14.4755 8.25477 13.8946L14.5694 8.48264C14.7669 8.29972 14.9992 8.15852 15.2525 8.06751C15.5058 7.9765 15.7748 7.93756 16.0435 7.953C16.3122 7.96845 16.575 8.03797 16.8162 8.1574C17.0574 8.27684 17.272 8.44372 17.4472 8.64807C17.6224 8.85241 17.7545 9.09001 17.8356 9.34663C17.9168 9.60325 17.9453 9.87361 17.9195 10.1415C17.8937 10.4094 17.8141 10.6694 17.6854 10.9058C17.5568 11.1422 17.3817 11.3502 17.1708 11.5173L10.8614 16.9333C10.6337 17.1277 10.4516 17.3699 10.3281 17.6426L6.6961 25.816C6.53877 26.168 6.28301 26.4671 5.95964 26.6772C5.63626 26.8872 5.25905 26.9993 4.87343 27V27Z" stroke="#BDBDBD" stroke-width="2" stroke-linecap="round" stroke-linejoin="round"/>
<path d="M29.7878 19.788C30.0158 20.5497 29.9321 21.3707 29.5551 22.0707C29.1781 22.7708 28.5386 23.2925 27.7772 23.5213L2.87451 31" stroke="#BDBDBD" stroke-width="2" stroke-linecap="round" stroke-linejoin="round"/>
</svg>
