<svg width="33" height="32" viewBox="0 0 33 32" fill="none" xmlns="http://www.w3.org/2000/svg">
<g clip-path="url(#clip0_576_299)">
<path d="M16.6245 1C13.6578 1 10.7577 1.87973 8.29097 3.52796C5.82423 5.17618 3.90164 7.51886 2.76633 10.2597C1.63101 13.0006 1.33396 16.0166 1.91274 18.9264C2.49152 21.8361 3.92013 24.5088 6.01792 26.6066C8.1157 28.7044 10.7884 30.133 13.6982 30.7118C16.6079 31.2906 19.6239 30.9935 22.3648 29.8582C25.1057 28.7229 27.4483 26.8003 29.0966 24.3336C30.7448 21.8668 31.6245 18.9667 31.6245 16C31.6245 14.0302 31.2365 12.0796 30.4827 10.2597C29.7289 8.43986 28.624 6.78628 27.2311 5.3934C25.8382 4.00052 24.1847 2.89563 22.3648 2.14181C20.5449 1.38799 18.5943 1 16.6245 1V1Z" stroke="#2D2D2D" stroke-width="2" stroke-linecap="round" stroke-linejoin="round"/>
<path d="M12.4847 22.3387L9.93799 14.4721L16.6247 9.61072L23.3113 14.4721L20.7647 22.3387H12.4847Z" stroke="#2D2D2D" stroke-width="2" stroke-linecap="round" stroke-linejoin="round"/>
<path d="M22.359 2.13464L16.6243 5.99998L10.8896 2.13464" stroke="#2D2D2D" stroke-width="2" stroke-linecap="round" stroke-linejoin="round"/>
<path d="M20.0898 30.5973L22.9418 24.776L29.4538 23.776" stroke="#2D2D2D" stroke-width="2" stroke-linecap="round" stroke-linejoin="round"/>
<path d="M31.5767 17.212L27.0073 12.6614L27.9873 6.20935" stroke="#2D2D2D" stroke-width="2" stroke-linecap="round" stroke-linejoin="round"/>
<path d="M16.6245 6V9.61067" stroke="#2D2D2D" stroke-width="2" stroke-linecap="round" stroke-linejoin="round"/>
<path d="M23.311 14.472L27.007 12.6614" stroke="#2D2D2D" stroke-width="2" stroke-linecap="round" stroke-linejoin="round"/>
<path d="M1.67236 17.212L6.2417 12.6614L5.2617 6.20935" stroke="#2D2D2D" stroke-width="2" stroke-linecap="round" stroke-linejoin="round"/>
<path d="M9.9377 14.472L6.2417 12.6614" stroke="#2D2D2D" stroke-width="2" stroke-linecap="round" stroke-linejoin="round"/>
<path d="M20.7646 22.3386L22.942 24.776" stroke="#2D2D2D" stroke-width="2" stroke-linecap="round" stroke-linejoin="round"/>
<path d="M13.1594 30.5973L10.3074 24.776L3.79541 23.776" stroke="#2D2D2D" stroke-width="2" stroke-linecap="round" stroke-linejoin="round"/>
<path d="M12.4845 22.3386L10.3071 24.776" stroke="#2D2D2D" stroke-width="2" stroke-linecap="round" stroke-linejoin="round"/>
</g>
<defs>
<clipPath id="clip0_576_299">
<rect width="32" height="32" fill="white" transform="translate(0.624512)"/>
</clipPath>
</defs>
</svg>
