<svg width="33" height="32" viewBox="0 0 33 32" fill="none" xmlns="http://www.w3.org/2000/svg">
<g clip-path="url(#clip0_576_90)">
<path d="M31.541 29.9267C28.273 30.6067 26.245 27.3453 26.245 27.3453C25.7401 28.1472 25.0447 28.8117 24.2207 29.2795C23.3966 29.7474 22.4697 30.0041 21.5223 30.0267C20.6275 30.0088 19.754 29.7504 18.9934 29.2786C18.2328 28.8068 17.6133 28.1391 17.1997 27.3453V27.3453C16.5906 28.1372 15.8166 28.7871 14.9314 29.2501C14.0462 29.7131 13.0708 29.9781 12.073 30.0267C11.1317 29.9808 10.2145 29.7142 9.39523 29.2485C8.576 28.7827 7.8778 28.1308 7.35702 27.3453V27.3453C7.35702 27.3453 4.73835 30.6667 1.54102 29.98" stroke="#BDBDBD" stroke-width="2" stroke-linecap="round" stroke-linejoin="round"/>
<path d="M31.541 23.9267C28.273 24.6067 26.245 21.3453 26.245 21.3453C25.7401 22.1472 25.0447 22.8117 24.2207 23.2795C23.3966 23.7474 22.4697 24.0041 21.5223 24.0267C20.6275 24.0088 19.754 23.7504 18.9934 23.2786C18.2328 22.8068 17.6133 22.1391 17.1997 21.3453C16.5906 22.1372 15.8166 22.7871 14.9314 23.2501C14.0462 23.7131 13.0708 23.9781 12.073 24.0267C11.1317 23.9808 10.2145 23.7142 9.39523 23.2485C8.576 22.7827 7.8778 22.1308 7.35702 21.3453V21.3453C7.35702 21.3453 4.73835 24.6667 1.54102 23.98" stroke="#BDBDBD" stroke-width="2" stroke-linecap="round" stroke-linejoin="round"/>
<path d="M23.041 11.4266C23.041 12.3549 23.4098 13.2451 24.0661 13.9015C24.7225 14.5579 25.6128 14.9266 26.541 14.9266C27.4693 14.9266 28.3595 14.5579 29.0159 13.9015C29.6723 13.2451 30.041 12.3549 30.041 11.4266C30.041 10.4984 29.6723 9.60814 29.0159 8.95176C28.3595 8.29538 27.4693 7.92664 26.541 7.92664C25.6128 7.92664 24.7225 8.29538 24.0661 8.95176C23.4098 9.60814 23.041 10.4984 23.041 11.4266Z" stroke="#BDBDBD" stroke-width="2" stroke-linecap="round" stroke-linejoin="round"/>
<path d="M10.3799 18.6667L15.4879 15.4667L11.7412 11.192C11.3386 10.732 11.0468 10.1857 10.8882 9.59531C10.7297 9.00489 10.7085 8.38597 10.8265 7.7861C10.9444 7.18624 11.1983 6.62139 11.5686 6.13494C11.9389 5.6485 12.4157 5.25341 12.9625 4.98001L18.6466 2.13335C18.8817 2.01343 19.1382 1.94125 19.4014 1.92096C19.6646 1.90067 19.9292 1.93267 20.1799 2.01513C20.4307 2.09758 20.6626 2.22886 20.8624 2.40139C21.0622 2.57391 21.2258 2.78427 21.3439 3.02035C21.462 3.25642 21.5321 3.51353 21.5504 3.77685C21.5686 4.04018 21.5346 4.30451 21.4501 4.5546C21.3657 4.8047 21.2327 5.03561 21.0586 5.23403C20.8845 5.43245 20.6729 5.59445 20.4359 5.71068L15.9025 7.97735C15.7666 8.04684 15.6483 8.14651 15.5568 8.26873C15.4652 8.39095 15.4029 8.53248 15.3744 8.68251C15.346 8.83253 15.3522 8.98708 15.3927 9.13432C15.4332 9.28155 15.5068 9.41759 15.6079 9.53201L22.7772 17.7253" stroke="#BDBDBD" stroke-width="2" stroke-linecap="round" stroke-linejoin="round"/>
</g>
<defs>
<clipPath id="clip0_576_90">
<rect width="32" height="32" fill="white" transform="translate(0.541016)"/>
</clipPath>
</defs>
</svg>
