<svg width="33" height="32" viewBox="0 0 33 32" fill="none" xmlns="http://www.w3.org/2000/svg">
<g clip-path="url(#clip0_576_29)">
<path d="M1.95703 16C1.95703 19.9782 3.53738 23.7936 6.35043 26.6066C9.16348 29.4196 12.9788 31 16.957 31C20.9353 31 24.7506 29.4196 27.5636 26.6066C30.3767 23.7936 31.957 19.9782 31.957 16C31.957 12.0218 30.3767 8.20644 27.5636 5.3934C24.7506 2.58035 20.9353 1 16.957 1C12.9788 1 9.16348 2.58035 6.35043 5.3934C3.53738 8.20644 1.95703 12.0218 1.95703 16V16Z" stroke="#BDBDBD" stroke-width="2" stroke-linecap="round" stroke-linejoin="round"/>
<path d="M8.95703 8.00928C9.39374 8.79453 9.7708 9.6115 10.085 10.4533" stroke="#BDBDBD" stroke-width="2" stroke-linecap="round" stroke-linejoin="round"/>
<path d="M10.9903 14.1614C11.1241 15.314 11.1093 16.4791 10.9463 17.628" stroke="#BDBDBD" stroke-width="2" stroke-linecap="round" stroke-linejoin="round"/>
<path d="M9.93067 21.3107C9.538 22.2494 9.05906 23.1497 8.5 24" stroke="#BDBDBD" stroke-width="2" stroke-linecap="round" stroke-linejoin="round"/>
<path d="M24.9567 8.00928C24.5205 8.79457 24.1439 9.61154 23.8301 10.4533" stroke="#BDBDBD" stroke-width="2" stroke-linecap="round" stroke-linejoin="round"/>
<path d="M22.9234 14.1614C22.7896 15.314 22.8044 16.4791 22.9674 17.628" stroke="#BDBDBD" stroke-width="2" stroke-linecap="round" stroke-linejoin="round"/>
<path d="M23.9834 21.3107C24.376 22.2497 24.8554 23.1501 25.4154 24" stroke="#BDBDBD" stroke-width="2" stroke-linecap="round" stroke-linejoin="round"/>
</g>
<defs>
<clipPath id="clip0_576_29">
<rect width="32" height="32" fill="white" transform="translate(0.957031)"/>
</clipPath>
</defs>
</svg>
