<svg width="22" height="20" viewBox="0 0 22 20" fill="none" xmlns="http://www.w3.org/2000/svg">
<path d="M21.6511 11.7188L20.5261 2.71875C20.4576 2.17489 20.1929 1.67475 19.7817 1.31224C19.3705 0.949741 18.8411 0.749812 18.293 0.75H2.16797C1.77014 0.75 1.38861 0.908035 1.10731 1.18934C0.826004 1.47064 0.667969 1.85218 0.667969 2.25V10.5C0.667969 10.8978 0.826004 11.2794 1.10731 11.5607C1.38861 11.842 1.77014 12 2.16797 12H6.20484L9.74672 19.0856C9.80907 19.2102 9.9049 19.315 10.0235 19.3882C10.142 19.4614 10.2786 19.5001 10.418 19.5C11.4125 19.5 12.3664 19.1049 13.0696 18.4016C13.7729 17.6984 14.168 16.7446 14.168 15.75V14.25H19.418C19.7373 14.2501 20.0529 14.1823 20.3439 14.051C20.635 13.9197 20.8948 13.728 21.106 13.4885C21.3172 13.2491 21.4751 12.9675 21.5691 12.6623C21.663 12.3572 21.691 12.0355 21.6511 11.7188ZM5.91797 10.5H2.16797V2.25H5.91797V10.5ZM19.9805 12.4959C19.9106 12.5763 19.8241 12.6407 19.727 12.6845C19.6299 12.7284 19.5245 12.7507 19.418 12.75H13.418C13.2191 12.75 13.0283 12.829 12.8876 12.9697C12.747 13.1103 12.668 13.3011 12.668 13.5V15.75C12.6681 16.2702 12.488 16.7744 12.1583 17.1767C11.8286 17.5791 11.3696 17.8548 10.8595 17.9569L7.41797 11.0728V2.25H18.293C18.4757 2.24994 18.6521 2.31658 18.7892 2.43742C18.9263 2.55825 19.0145 2.72496 19.0373 2.90625L20.1623 11.9062C20.1764 12.0118 20.1674 12.1192 20.136 12.221C20.1046 12.3228 20.0516 12.4166 19.9805 12.4959Z" fill="#D11101"/>
</svg>
