<svg width="22" height="19" viewBox="0 0 22 19" fill="none" xmlns="http://www.w3.org/2000/svg">
<path d="M20.6045 6.26125C20.3933 6.02193 20.1336 5.83028 19.8427 5.69903C19.5517 5.56778 19.2362 5.49994 18.917 5.5H13.667V4C13.667 3.00544 13.2719 2.05161 12.5686 1.34835C11.8654 0.645088 10.9116 0.25 9.91699 0.25C9.77766 0.2499 9.64105 0.288617 9.52249 0.361808C9.40392 0.434999 9.30809 0.539771 9.24574 0.664375L5.70387 7.75H1.66699C1.26917 7.75 0.887636 7.90804 0.606332 8.18934C0.325027 8.47064 0.166992 8.85218 0.166992 9.25V17.5C0.166992 17.8978 0.325027 18.2794 0.606332 18.5607C0.887636 18.842 1.26917 19 1.66699 19H17.792C18.3402 19.0002 18.8695 18.8003 19.2807 18.4378C19.6919 18.0753 19.9566 17.5751 20.0251 17.0312L21.1501 8.03125C21.19 7.7144 21.162 7.39268 21.0679 7.0875C20.9738 6.78232 20.8158 6.50066 20.6045 6.26125ZM1.66699 9.25H5.41699V17.5H1.66699V9.25ZM19.6614 7.84375L18.5364 16.8438C18.5135 17.025 18.4253 17.1918 18.2882 17.3126C18.1512 17.4334 17.9747 17.5001 17.792 17.5H6.91699V8.67719L10.3586 1.79313C10.8686 1.89521 11.3276 2.1709 11.6573 2.57326C11.987 2.97562 12.1671 3.4798 12.167 4V6.25C12.167 6.44891 12.246 6.63968 12.3867 6.78033C12.5273 6.92098 12.7181 7 12.917 7H18.917C19.0234 6.99996 19.1286 7.02258 19.2257 7.06634C19.3227 7.11011 19.4093 7.17402 19.4797 7.25383C19.5501 7.33363 19.6027 7.42752 19.634 7.52923C19.6653 7.63094 19.6747 7.73816 19.6614 7.84375Z" fill="#17BB00"/>
</svg>
