<svg width="33" height="32" viewBox="0 0 33 32" fill="none" xmlns="http://www.w3.org/2000/svg">
<g clip-path="url(#clip0_576_155)">
<path d="M1.62402 16C1.62402 19.9782 3.20438 23.7936 6.01742 26.6066C8.83047 29.4196 12.6458 31 16.624 31C20.6023 31 24.4176 29.4196 27.2306 26.6066C30.0437 23.7936 31.624 19.9782 31.624 16C31.624 12.0218 30.0437 8.20644 27.2306 5.3934C24.4176 2.58035 20.6023 1 16.624 1C12.6458 1 8.83047 2.58035 6.01742 5.3934C3.20438 8.20644 1.62402 12.0218 1.62402 16V16Z" stroke="#BDBDBD" stroke-width="2" stroke-linecap="round" stroke-linejoin="round"/>
<path d="M28.1054 25.6533C27.1977 23.1839 25.661 20.9944 23.6472 19.3013C21.6335 17.6081 19.2126 16.4702 16.624 16" stroke="#BDBDBD" stroke-width="2" stroke-linecap="round" stroke-linejoin="round"/>
<path d="M2.44434 20.9053C5.03057 21.4173 7.7064 21.2329 10.198 20.371C12.6895 19.5091 14.9073 18.0006 16.6243 16" stroke="#BDBDBD" stroke-width="2" stroke-linecap="round" stroke-linejoin="round"/>
<path d="M19.1425 1.21069C17.4511 3.23222 16.3267 5.66654 15.8842 8.26493C15.4417 10.8633 15.6969 13.5326 16.6238 16" stroke="#BDBDBD" stroke-width="2" stroke-linecap="round" stroke-linejoin="round"/>
<path d="M7.21377 21.0667C5.6005 18.9068 4.59892 16.3522 4.31432 13.6713C4.02972 10.9905 4.47261 8.28251 5.59644 5.83203" stroke="#BDBDBD" stroke-width="2" stroke-linecap="round" stroke-linejoin="round"/>
<path d="M12.2333 19.4893C10.3543 16.8539 9.37792 13.6814 9.45001 10.4455C9.5221 7.20963 10.6388 4.08381 12.6333 1.53467" stroke="#BDBDBD" stroke-width="2" stroke-linecap="round" stroke-linejoin="round"/>
<path d="M16.7236 5.27328C19.3446 4.88957 22.0205 5.20642 24.4794 6.19162C26.9383 7.17683 29.0927 8.79529 30.7236 10.8826" stroke="#BDBDBD" stroke-width="2" stroke-linecap="round" stroke-linejoin="round"/>
<path d="M15.6904 10.4813C18.8626 10.0568 22.0876 10.6522 24.8992 12.1814C27.7107 13.7106 29.963 16.0944 31.3304 18.988" stroke="#BDBDBD" stroke-width="2" stroke-linecap="round" stroke-linejoin="round"/>
<path d="M25.7323 21.4333C24.7186 23.9257 23.0538 26.0998 20.912 27.7284C18.7702 29.3569 16.2302 30.38 13.5576 30.6907" stroke="#BDBDBD" stroke-width="2" stroke-linecap="round" stroke-linejoin="round"/>
<path d="M21.7585 17.948C20.4824 20.8974 18.293 23.359 15.5126 24.9704C12.7322 26.5818 9.5079 27.2577 6.31445 26.8987" stroke="#BDBDBD" stroke-width="2" stroke-linecap="round" stroke-linejoin="round"/>
</g>
<defs>
<clipPath id="clip0_576_155">
<rect width="32" height="32" fill="white" transform="translate(0.624023)"/>
</clipPath>
</defs>
</svg>
