<svg width="45" height="45" viewBox="0 0 45 45" fill="none" xmlns="http://www.w3.org/2000/svg">
<rect x="0.75" y="0.0419922" width="44" height="44" rx="22" fill="#D11101"/>
<path d="M36.4566 14.5036C36.3351 14.0283 36.1024 13.5888 35.7777 13.2212C35.4529 12.8537 35.0454 12.5686 34.5887 12.3895C30.1698 10.6828 23.1367 10.6982 22.75 10.6982C22.3633 10.6982 15.3302 10.6828 10.9112 12.3895C10.4546 12.5686 10.0471 12.8537 9.72234 13.2212C9.39757 13.5888 9.16486 14.0283 9.0434 14.5036C8.70953 15.79 8.3125 18.1413 8.3125 22.042C8.3125 25.9427 8.70953 28.294 9.0434 29.5804C9.16468 30.0559 9.39731 30.4957 9.72209 30.8635C10.0469 31.2313 10.4545 31.5166 10.9112 31.6958C15.1445 33.329 21.7703 33.3857 22.6649 33.3857H22.8351C23.7297 33.3857 30.3593 33.329 34.5887 31.6958C35.0455 31.5166 35.4531 31.2313 35.7779 30.8635C36.1027 30.4957 36.3353 30.0559 36.4566 29.5804C36.7905 28.2914 37.1875 25.9427 37.1875 22.042C37.1875 18.1413 36.7905 15.79 36.4566 14.5036ZM26.9511 22.8825L21.7948 26.4918C21.6406 26.5999 21.4597 26.6636 21.2718 26.6762C21.0839 26.6887 20.8961 26.6496 20.7289 26.563C20.5617 26.4764 20.4213 26.3456 20.3231 26.1849C20.2249 26.0242 20.1726 25.8397 20.1719 25.6514V18.4326C20.1719 18.244 20.2237 18.0589 20.3216 17.8977C20.4195 17.7364 20.5598 17.6051 20.7272 17.5181C20.8945 17.431 21.0826 17.3915 21.2708 17.4039C21.4591 17.4163 21.6403 17.48 21.7948 17.5883L26.9511 21.1977C27.0867 21.2928 27.1974 21.4192 27.2739 21.5661C27.3503 21.7131 27.3902 21.8763 27.3902 22.042C27.3902 22.2077 27.3503 22.3709 27.2739 22.5179C27.1974 22.6648 27.0867 22.7912 26.9511 22.8863V22.8825Z" fill="white"/>
</svg>
