<svg width="32" height="32" viewBox="0 0 32 32" fill="none" xmlns="http://www.w3.org/2000/svg">
  <circle cx="16" cy="16" r="16" fill="url(#instagram-gradient)"/>
  <path d="M21 8H11C9.34 8 8 9.34 8 11V21C8 22.66 9.34 24 11 24H21C22.66 24 24 22.66 24 21V11C24 9.34 22.66 8 21 8ZM16 20C13.79 20 12 18.21 12 16C12 13.79 13.79 12 16 12C18.21 12 20 13.79 20 16C20 18.21 18.21 20 16 20ZM20.5 12C19.67 12 19 11.33 19 10.5C19 9.67 19.67 9 20.5 9C21.33 9 22 9.67 22 10.5C22 11.33 21.33 12 20.5 12Z" fill="white"/>
  <defs>
    <linearGradient id="instagram-gradient" x1="2" y1="24" x2="30" y2="8" gradientUnits="userSpaceOnUse">
      <stop stop-color="#8A3AC8"/>
      <stop offset="0.5" stop-color="#E2425C"/>
      <stop offset="1" stop-color="#FCAF45"/>
    </linearGradient>
  </defs>
</svg> 