<svg width="172" height="24" viewBox="0 0 172 24" fill="none" xmlns="http://www.w3.org/2000/svg">
<g clip-path="url(#clip0_242_3447)">
<path fill-rule="evenodd" clip-rule="evenodd" d="M61.5834 0H65.5001C64.4167 6.58332 62.7501 12.5 62.1667 19.5833H58.5001C58.5834 18.9166 58.5834 18.1666 58.7501 17.4166C57.7501 18.75 56.2501 20.0833 53.9167 19.9166C51.1667 19.6666 49.9167 17 50.1667 14C50.5001 10.3333 52.4167 7.83332 55.2501 6.49999C56.6667 5.83332 58.6667 5.49999 60.5001 6.08332C60.8334 4.08333 61.2501 2.08333 61.6667 0.0833332V0L61.5834 0ZM57.9167 8.83332C55.5834 9.08332 54.0001 12 54.1667 14.5833C54.2501 16.0833 55.5001 17.3333 57.0001 16.4166C59.0001 15.3333 59.1667 11.8333 59.8334 9.33332C59.3334 8.99998 58.7501 8.74999 57.9167 8.83332Z" fill="white"/>
<path fill-rule="evenodd" clip-rule="evenodd" d="M48.75 0.250082C50.25 0.166748 51.4167 1.58341 50.6667 3.25008C50 4.66674 47.4167 5.00007 46.75 3.50008C46 1.83341 47.25 0.416748 48.75 0.333415V0.250082Z" fill="white"/>
<path fill-rule="evenodd" clip-rule="evenodd" d="M69.25 0.250058C70.9167 0.166725 72.0833 1.91672 71.0833 3.41672C70.0833 5.08338 66.8333 4.75005 67.0833 2.16672C67.1667 1.08339 68 0.333391 69.25 0.250058Z" fill="white"/>
<path fill-rule="evenodd" clip-rule="evenodd" d="M13.4167 8.25018C14.3334 6.83351 17.6667 4.75018 20 6.33351C22.1667 7.83351 21.1667 11.7502 20.6667 14.5002C20.3334 16.3335 20 18.0002 19.6667 19.5835H15.8334C16.0834 18.3335 16.3334 16.8335 16.5834 15.3335C16.8334 13.9168 17.25 12.4168 17.3334 11.1668C17.4167 9.75017 16.9167 8.58351 15.4167 9.16684C15.1667 9.25017 14.9167 9.41684 14.6667 9.58351C12.5 11.5002 12.5834 16.4168 11.6667 19.5835H7.83338C8.08338 18.0835 8.33338 16.6668 8.66671 15.1668C8.91671 13.6668 9.41671 12.1668 9.41671 10.6668C9.41671 9.33351 8.50005 8.58351 7.25005 9.25018C4.58339 10.7502 4.66672 16.0835 3.83339 19.5835H6.10352e-05C0.75006 15.0835 1.66672 10.6668 2.33339 6.08351H5.75005C5.66672 6.75018 5.58338 7.50018 5.50005 8.16684C5.75005 8.08351 5.83338 7.75018 6.08338 7.58351C6.91672 6.66685 8.16671 5.83351 9.75004 5.75018C11.75 5.58351 13 6.50018 13.4167 8.25018Z" fill="white"/>
<path fill-rule="evenodd" clip-rule="evenodd" d="M38.6668 10.5833C37.7501 11.4167 36.7501 12.4167 35.6668 13.0833C36.1668 10.9167 36.4168 8.58334 36.6668 6.16667H40.1668C40.0835 7.08334 40.0001 8 39.9168 8.91667C41.0001 7.33334 42.0835 5.66667 45.0001 5.83334C44.8334 7.16667 44.5001 8.41667 44.2501 9.75C39.0835 9.33333 39.5001 15.6667 38.5001 19.5833H34.5001C34.5835 19 34.7501 18.4167 34.8335 17.8333C32.8335 19.0833 30.1668 20.3333 26.8335 19.8333C23.9168 19.4166 22.2502 17.5833 22.2502 14.25C22.2502 11.9167 23.1668 9.91667 24.3335 8.5C25.7501 6.83334 27.5835 5.66667 30.6668 5.83334C32.9168 6.00001 34.5835 7.25 34.7501 9.41667C34.9168 11.75 33.6668 13 32.1668 13.6667C30.5001 14.3333 28.4168 14.4167 26.0835 14.4167C26.0835 16 27.3335 16.75 28.8335 16.8333C31.1668 17 33.3335 16 34.8335 14.8333C36.5001 13.5833 37.6668 11.9167 38.8335 10.5833H38.6668ZM30.9168 10.1667C31.1668 9.08333 30.2501 8.66667 29.3335 8.66667C27.7501 8.66667 26.5835 10.0833 26.3335 11.5C28.0001 11.4167 30.5001 11.5 30.9168 10.1667Z" fill="white"/>
<path fill-rule="evenodd" clip-rule="evenodd" d="M84.5832 6.41661C83.8332 10.7499 82.5832 14.4999 82.6665 19.5833H78.9999C78.9999 18.6666 79.0832 17.8333 79.1665 16.9999C78.0832 18.5833 76.7499 20.0833 74.1665 19.9166C71.8332 19.7499 70.4999 17.7499 70.4165 15.2499C70.4165 12.4166 71.4999 10.2499 72.9165 8.74994C74.4165 7.16661 76.4165 6.08328 79.1665 5.83328C81.2499 5.66662 82.9165 6.08328 84.5832 6.49995V6.41661ZM78.7499 8.74994C76.4165 8.99994 74.5832 11.9999 74.6665 14.4999C74.6665 15.1666 74.8332 15.8333 75.2499 16.2499C75.9999 16.9166 77.1665 16.4999 77.6665 15.9999C79.3332 14.5833 79.5832 11.4166 80.1665 8.83328C79.5832 8.83328 79.3332 8.74994 78.8332 8.83328L78.7499 8.74994Z" fill="white"/>
<path fill-rule="evenodd" clip-rule="evenodd" d="M96.5833 19.5833H92.5833C93 17.5 93.5 15 93.9166 12.75C94.25 11.25 94.6666 8.58336 92.4166 9.08336C92.0833 9.08336 91.75 9.41669 91.5 9.58336C89.25 11.4167 89.25 16.25 88.4166 19.5833H84.4167C85.25 15.0834 86.1667 10.6667 86.9167 6.08337H90.4166C90.4166 6.83337 90.25 7.50003 90.1666 8.25003C91.1666 7.1667 92.3333 5.9167 94.3333 5.75003C96.9166 5.50003 98.25 6.83337 98.4166 9.08336C98.5 10.9167 98 12.6667 97.6666 14.4167C97.3333 16.1667 97 17.9167 96.75 19.5833H96.5833Z" fill="white"/>
<path fill-rule="evenodd" clip-rule="evenodd" d="M46.0834 6.08337H50C49.0834 10.5834 48.3334 15.0834 47.4167 19.5834H43.5001C44.2501 15.0834 45.1667 10.75 46.0001 6.25004C46.0001 6.25004 46.0001 6.16671 46.0001 6.08337H46.0834Z" fill="white"/>
<path fill-rule="evenodd" clip-rule="evenodd" d="M66.5834 6.08337H70.5001C69.5834 10.5834 68.8334 15.0834 67.9167 19.5834H63.9167C64.7501 15.1667 65.5834 10.6667 66.4167 6.25004C66.4167 6.25004 66.4167 6.16671 66.5001 6.08337H66.5834Z" fill="white"/>
<path d="M102.25 11C102.94 11 103.5 10.4404 103.5 9.75C103.5 9.05964 102.94 8.5 102.25 8.5C101.559 8.5 101 9.05964 101 9.75C101 10.4404 101.559 11 102.25 11Z" fill="white"/>
<path d="M102.25 17C102.94 17 103.5 16.4404 103.5 15.75C103.5 15.0596 102.94 14.5 102.25 14.5C101.56 14.5 101 15.0596 101 15.75C101 16.4404 101.56 17 102.25 17Z" fill="white"/>
<path d="M106.167 15.1667L109.667 14.5834C110 15.3334 110.333 15.8334 110.833 16.1667C111.333 16.5001 111.917 16.5834 112.75 16.5834C113.583 16.5834 114.25 16.4167 114.75 16.0001C115.083 15.7501 115.25 15.4167 115.25 15.0834C115.25 14.7501 115.167 14.5834 115 14.4167C114.833 14.2501 114.333 14.0001 113.5 13.7501C111.333 13.0001 110 12.5001 109.5 12.0834C108.667 11.4167 108.25 10.5834 108.25 9.50007C108.25 8.41674 108.667 7.50008 109.417 6.75008C110.5 5.66675 112.167 5.16675 114.25 5.16675C116.333 5.16675 117.25 5.50008 118.167 6.08341C119.083 6.66675 119.583 7.58341 119.833 8.66674L116.5 9.25007C116.333 8.75008 116 8.41674 115.667 8.16674C115.167 7.83341 114.5 7.66674 113.75 7.66674C113 7.66674 112.417 7.83341 112.167 8.08341C111.833 8.33341 111.667 8.58341 111.667 8.91674C111.667 9.25007 111.833 9.50007 112.167 9.75007C112.417 9.91674 113.083 10.0834 114.167 10.4167C115.917 10.9167 117.083 11.4167 117.667 11.9167C118.5 12.5834 118.917 13.4167 118.917 14.4167C118.917 15.4167 118.417 16.7501 117.333 17.6667C116.25 18.5834 114.75 19.0834 112.833 19.0834C110.917 19.0834 109.417 18.7501 108.417 18.0001C107.417 17.2501 106.667 16.3334 106.25 15.0001L106.167 15.1667Z" fill="white"/>
<path d="M123.583 5.58333H127L126.75 6.91666C127.5 6.33333 128.166 5.91667 128.833 5.66667C129.5 5.41667 130.166 5.25 130.916 5.25C132.333 5.25 133.416 5.75 134.25 6.66666C135.083 7.58333 135.5 9.08333 135.5 11C135.5 12.9167 134.75 15.4166 133.333 17.0833C132.083 18.5 130.583 19.1666 128.916 19.1666C127.25 19.1666 125.833 18.4166 124.916 17L123.5 23.9166H119.916L123.75 5.5L123.583 5.58333ZM125.75 13.25C125.75 14.25 126 15.0833 126.5 15.6666C127 16.25 127.583 16.5 128.25 16.5C128.916 16.5 129.416 16.25 130 15.8333C130.583 15.4166 131 14.6667 131.333 13.6667C131.666 12.6667 131.916 11.75 131.916 10.9167C131.916 10.0833 131.666 9.16666 131.166 8.66666C130.666 8.16666 130.083 7.83333 129.333 7.83333C128.583 7.83333 128 8.08333 127.5 8.58333C127 9.08333 126.5 9.74999 126.166 10.75C125.833 11.75 125.666 12.5 125.666 13.25H125.75Z" fill="white"/>
<path d="M137.083 13.4167C137.083 10.9167 137.75 9.00003 139.167 7.50004C140.583 6.00004 142.417 5.33337 144.667 5.33337C146.917 5.33337 148.167 5.83337 149.25 6.9167C150.333 8.00004 150.917 9.4167 150.917 11.25C150.917 13.0834 150.25 15.25 148.833 16.8334C147.417 18.4167 145.583 19.1667 143.333 19.1667C141.083 19.1667 141 18.9167 140 18.4167C139 17.9167 138.333 17.1667 137.833 16.25C137.333 15.3334 137.083 14.3334 137.083 13.3334V13.4167ZM147.333 10.8334C147.333 10 147.083 9.33337 146.583 8.75003C146.083 8.1667 145.417 8.00004 144.667 8.00004C143.917 8.00004 143.167 8.25004 142.583 8.75003C142 9.25003 141.5 9.9167 141.167 10.8334C140.833 11.75 140.667 12.5834 140.667 13.3334C140.667 14.0834 140.917 15.0834 141.417 15.5834C141.917 16.0834 142.583 16.4167 143.333 16.4167C144.083 16.4167 145.167 16 145.833 15.1667C146.75 14 147.25 12.5 147.25 10.8334H147.333Z" fill="white"/>
<path d="M154.833 5.58333H158.166L157.666 8.16666C158.916 6.25 160.25 5.25 161.75 5.25C163.25 5.25 162.833 5.41667 163.416 5.66667L162 8.58333C161.666 8.49999 161.333 8.41666 161 8.41666C160.416 8.41666 159.75 8.66666 159.083 9.08333C158.416 9.49999 157.916 10.1667 157.583 10.9167C157.25 11.6667 156.833 12.9167 156.5 14.6667L155.583 18.8333H152L154.75 5.5L154.833 5.58333Z" fill="white"/>
<path d="M163.167 8.25007L163.75 5.58341H165.5L165.917 3.41674L170 0.916748L169 5.50007H171.167L170.583 8.16674H168.417L167.25 13.7501C167 14.7501 166.917 15.3334 166.917 15.5001C166.917 15.7501 167 16.0001 167.167 16.1667C167.333 16.3334 167.667 16.4167 168.083 16.4167C168.5 16.4167 168.667 16.4167 169.25 16.3334L168.667 19C168.083 19.1667 167.417 19.1667 166.75 19.1667C165.5 19.1667 164.583 18.9167 164 18.4167C163.417 17.9167 163.167 17.2501 163.167 16.4167C163.167 15.5834 163.333 15.0834 163.667 13.5834L164.75 8.25007H163H163.167Z" fill="white"/>
</g>
<defs>
<clipPath id="clip0_242_3447">
<rect width="171.25" height="24" fill="white"/>
</clipPath>
</defs>
</svg>
