<svg width="38" height="27" viewBox="0 0 38 27" fill="none" xmlns="http://www.w3.org/2000/svg">
<path d="M21.1346 24.1579L21.1346 8.52632C21.137 6.26572 22.0373 4.09838 23.6381 2.4999C25.2388 0.901412 27.4093 0.00235279 29.6731 3.13045e-06C30.0505 3.16344e-06 30.4125 0.149719 30.6793 0.416219C30.9462 0.682718 31.0962 1.04417 31.0962 1.42105C31.0962 1.79794 30.9462 2.15939 30.6793 2.42589C30.4125 2.69239 30.0505 2.84211 29.6731 2.84211C28.1634 2.84211 26.7155 3.44098 25.648 4.50697C24.5805 5.57297 23.9808 7.01877 23.9808 8.52632L23.9808 9.94737L34.6538 9.94737C35.4087 9.94737 36.1326 10.2468 36.6664 10.7798C37.2001 11.3128 37.5 12.0357 37.5 12.7895L37.5 24.1579C37.5 24.9117 37.2001 25.6346 36.6664 26.1676C36.1326 26.7006 35.4087 27 34.6538 27L23.9808 27C23.2259 27 22.502 26.7006 21.9682 26.1676C21.4345 25.6346 21.1346 24.9117 21.1346 24.1579ZM3.34615 27L14.0192 27C14.7741 27 15.498 26.7006 16.0318 26.1676C16.5655 25.6346 16.8654 24.9117 16.8654 24.1579L16.8654 12.7895C16.8654 12.0357 16.5655 11.3128 16.0318 10.7798C15.498 10.2468 14.7741 9.94737 14.0192 9.94737L3.34615 9.94737L3.34615 8.52631C3.34615 7.01877 3.94588 5.57297 5.01339 4.50697C6.08091 3.44098 7.52876 2.84211 9.03846 2.84211C9.41588 2.84211 9.77785 2.69239 10.0447 2.42589C10.3116 2.15939 10.4615 1.79794 10.4615 1.42105C10.4615 1.04417 10.3116 0.682716 10.0447 0.416217C9.77785 0.149717 9.41588 1.35951e-06 9.03846 1.32651e-06C6.77464 0.00235098 4.60422 0.90141 3.00345 2.4999C1.40269 4.09838 0.502352 6.26572 0.499998 8.52631L0.499996 24.1579C0.499996 24.9117 0.799858 25.6346 1.33361 26.1676C1.86737 26.7006 2.5913 27 3.34615 27Z" fill="#77B0C6"/>
</svg>
