<svg width="24" height="22" viewBox="0 0 24 22" fill="none" xmlns="http://www.w3.org/2000/svg">
<path d="M10.8545 9.125C10.8545 8.86541 10.9315 8.61165 11.0757 8.39581C11.2199 8.17997 11.4249 8.01175 11.6647 7.91241C11.9045 7.81307 12.1684 7.78708 12.423 7.83772C12.6776 7.88836 12.9115 8.01337 13.0951 8.19692C13.2786 8.38048 13.4036 8.61434 13.4543 8.86894C13.5049 9.12354 13.4789 9.38744 13.3796 9.62727C13.2802 9.8671 13.112 10.0721 12.8962 10.2163C12.6803 10.3605 12.4266 10.4375 12.167 10.4375C11.8189 10.4375 11.4851 10.2992 11.2389 10.0531C10.9928 9.80694 10.8545 9.4731 10.8545 9.125ZM7.35449 10.4375C7.61408 10.4375 7.86784 10.3605 8.08368 10.2163C8.29952 10.0721 8.46774 9.8671 8.56708 9.62727C8.66642 9.38744 8.69242 9.12354 8.64177 8.86894C8.59113 8.61434 8.46613 8.38048 8.28257 8.19692C8.09901 8.01337 7.86515 7.88836 7.61055 7.83772C7.35595 7.78708 7.09205 7.81307 6.85222 7.91241C6.61239 8.01175 6.40741 8.17997 6.26319 8.39581C6.11897 8.61165 6.04199 8.86541 6.04199 9.125C6.04199 9.4731 6.18027 9.80694 6.42641 10.0531C6.67256 10.2992 7.0064 10.4375 7.35449 10.4375ZM16.9795 10.4375C17.2391 10.4375 17.4928 10.3605 17.7087 10.2163C17.9245 10.0721 18.0927 9.8671 18.1921 9.62727C18.2914 9.38744 18.3174 9.12354 18.2668 8.86894C18.2161 8.61434 18.0911 8.38048 17.9076 8.19692C17.724 8.01337 17.4901 7.88836 17.2355 7.83772C16.9809 7.78708 16.717 7.81307 16.4772 7.91241C16.2374 8.01175 16.0324 8.17997 15.8882 8.39581C15.744 8.61165 15.667 8.86541 15.667 9.125C15.667 9.4731 15.8053 9.80694 16.0514 10.0531C16.2976 10.2992 16.6314 10.4375 16.9795 10.4375ZM23.542 2.125V16.125C23.542 16.5891 23.3576 17.0342 23.0294 17.3624C22.7012 17.6906 22.2561 17.875 21.792 17.875H15.1825L13.6862 20.4934C13.5331 20.7612 13.312 20.9837 13.0452 21.1385C12.7784 21.2933 12.4754 21.3748 12.167 21.3748C11.8586 21.3748 11.5556 21.2933 11.2888 21.1385C11.022 20.9837 10.8009 20.7612 10.6478 20.4934L9.15152 17.875H2.54199C2.07786 17.875 1.63274 17.6906 1.30456 17.3624C0.976367 17.0342 0.791992 16.5891 0.791992 16.125V2.125C0.791992 1.66087 0.976367 1.21575 1.30456 0.887563C1.63274 0.559374 2.07786 0.375 2.54199 0.375H21.792C22.2561 0.375 22.7012 0.559374 23.0294 0.887563C23.3576 1.21575 23.542 1.66087 23.542 2.125ZM21.792 2.125H2.54199V16.125H9.65902C9.81395 16.1236 9.96646 16.1634 10.101 16.2403C10.2355 16.3171 10.3472 16.4283 10.4246 16.5625L12.1746 19.625L13.9246 16.5625C14.0021 16.4283 14.1138 16.3171 14.2483 16.2403C14.3828 16.1634 14.5354 16.1236 14.6903 16.125H21.792V2.125Z" fill="#FACC01"/>
</svg>
