<svg width="32" height="32" viewBox="0 0 32 32" fill="none" xmlns="http://www.w3.org/2000/svg">
  <circle cx="16" cy="16" r="16" fill="#D11101"/>
  <path d="M24.2 12.1998C24 11.3998 23.4 10.7998 22.6 10.5998C21.1 10.1998 16 10.1998 16 10.1998C16 10.1998 10.9 10.1998 9.4 10.5998C8.6 10.7998 8 11.3998 7.8 12.1998C7.4 13.6998 7.4 16.7998 7.4 16.7998C7.4 16.7998 7.4 19.8998 7.8 21.3998C8 22.1998 8.6 22.7998 9.4 22.9998C10.9 23.3998 16 23.3998 16 23.3998C16 23.3998 21.1 23.3998 22.6 22.9998C23.4 22.7998 24 22.1998 24.2 21.3998C24.6 19.8998 24.6 16.7998 24.6 16.7998C24.6 16.7998 24.6 13.6998 24.2 12.1998ZM14.2 19.7998V13.7998L19 16.7998L14.2 19.7998Z" fill="white"/>
</svg> 